<mxfile host="app.diagrams.net" modified="2020-09-25T04:23:00.261Z" agent="5.0 (Macintosh; Intel Mac OS X 10_15_6) AppleWebKit/537.36 (KHTML, like Gecko) Chrome/85.0.4183.102 Safari/537.36" etag="g2o7_lwce8otAkRwnZhq" version="13.7.3" type="github">
  <diagram id="C5RBs43oDa-KdzZeNtuy" name="Page-1">
    <mxGraphModel dx="1960" dy="1405" grid="1" gridSize="10" guides="1" tooltips="1" connect="1" arrows="1" fold="1" page="1" pageScale="1" pageWidth="827" pageHeight="1169" math="0" shadow="0">
      <root>
        <mxCell id="WIyWlLk6GJQsqaUBKTNV-0" />
        <mxCell id="WIyWlLk6GJQsqaUBKTNV-1" parent="WIyWlLk6GJQsqaUBKTNV-0" />
        <mxCell id="_YNqAXAVylyeZjbfj3ao-8" value="" style="edgeStyle=orthogonalEdgeStyle;rounded=0;orthogonalLoop=1;jettySize=auto;html=1;" edge="1" parent="WIyWlLk6GJQsqaUBKTNV-1" source="_YNqAXAVylyeZjbfj3ao-5" target="_YNqAXAVylyeZjbfj3ao-7">
          <mxGeometry relative="1" as="geometry" />
        </mxCell>
        <mxCell id="_YNqAXAVylyeZjbfj3ao-10" value="" style="edgeStyle=orthogonalEdgeStyle;rounded=0;orthogonalLoop=1;jettySize=auto;html=1;exitX=1;exitY=0.5;exitDx=0;exitDy=0;" edge="1" parent="WIyWlLk6GJQsqaUBKTNV-1" source="_YNqAXAVylyeZjbfj3ao-9" target="_YNqAXAVylyeZjbfj3ao-5">
          <mxGeometry relative="1" as="geometry" />
        </mxCell>
        <mxCell id="_YNqAXAVylyeZjbfj3ao-5" value="Release生成 &lt;br&gt;V0.1.1_时间戳" style="whiteSpace=wrap;html=1;rounded=1;shadow=0;strokeWidth=1;glass=0;fillColor=#d5e8d4;strokeColor=#82b366;" vertex="1" parent="WIyWlLk6GJQsqaUBKTNV-1">
          <mxGeometry x="520" y="200" width="120" height="60" as="geometry" />
        </mxCell>
        <mxCell id="_YNqAXAVylyeZjbfj3ao-12" value="" style="edgeStyle=orthogonalEdgeStyle;rounded=0;orthogonalLoop=1;jettySize=auto;html=1;" edge="1" parent="WIyWlLk6GJQsqaUBKTNV-1" source="_YNqAXAVylyeZjbfj3ao-7" target="_YNqAXAVylyeZjbfj3ao-11">
          <mxGeometry relative="1" as="geometry" />
        </mxCell>
        <mxCell id="_YNqAXAVylyeZjbfj3ao-7" value="&lt;span&gt;测试 等/验证&lt;br&gt;&lt;/span&gt;" style="whiteSpace=wrap;html=1;rounded=1;shadow=0;strokeWidth=1;glass=0;fillColor=#fff2cc;strokeColor=#d6b656;" vertex="1" parent="WIyWlLk6GJQsqaUBKTNV-1">
          <mxGeometry x="707" y="200" width="120" height="60" as="geometry" />
        </mxCell>
        <mxCell id="_YNqAXAVylyeZjbfj3ao-18" style="edgeStyle=orthogonalEdgeStyle;rounded=0;orthogonalLoop=1;jettySize=auto;html=1;fontSize=30;shape=flexArrow;entryX=0.5;entryY=0;entryDx=0;entryDy=0;" edge="1" parent="WIyWlLk6GJQsqaUBKTNV-1" source="_YNqAXAVylyeZjbfj3ao-9" target="_YNqAXAVylyeZjbfj3ao-20">
          <mxGeometry relative="1" as="geometry">
            <mxPoint x="380" y="400" as="targetPoint" />
            <Array as="points" />
          </mxGeometry>
        </mxCell>
        <mxCell id="_YNqAXAVylyeZjbfj3ao-19" value="MR Merged" style="edgeLabel;html=1;align=center;verticalAlign=middle;resizable=0;points=[];fontSize=14;" vertex="1" connectable="0" parent="_YNqAXAVylyeZjbfj3ao-18">
          <mxGeometry x="0.2857" y="-30" relative="1" as="geometry">
            <mxPoint x="30" y="-14.29" as="offset" />
          </mxGeometry>
        </mxCell>
        <mxCell id="_YNqAXAVylyeZjbfj3ao-9" value="&lt;span&gt;CI 开发阶段/Branch&lt;br&gt;V0.1.0&lt;br&gt;&lt;/span&gt;" style="whiteSpace=wrap;html=1;rounded=1;shadow=0;strokeWidth=1;glass=0;fillColor=#dae8fc;strokeColor=#6c8ebf;" vertex="1" parent="WIyWlLk6GJQsqaUBKTNV-1">
          <mxGeometry x="320" y="200" width="120" height="60" as="geometry" />
        </mxCell>
        <mxCell id="_YNqAXAVylyeZjbfj3ao-14" value="" style="edgeStyle=orthogonalEdgeStyle;rounded=0;orthogonalLoop=1;jettySize=auto;html=1;" edge="1" parent="WIyWlLk6GJQsqaUBKTNV-1" source="_YNqAXAVylyeZjbfj3ao-11" target="_YNqAXAVylyeZjbfj3ao-13">
          <mxGeometry relative="1" as="geometry" />
        </mxCell>
        <mxCell id="_YNqAXAVylyeZjbfj3ao-11" value="&lt;span&gt;SonarQube&lt;/span&gt;&lt;br&gt;&lt;span&gt;代码质量/测试报告&lt;/span&gt;" style="whiteSpace=wrap;html=1;rounded=1;shadow=0;strokeWidth=1;glass=0;fillColor=#fff2cc;strokeColor=#d6b656;" vertex="1" parent="WIyWlLk6GJQsqaUBKTNV-1">
          <mxGeometry x="900" y="200" width="120" height="60" as="geometry" />
        </mxCell>
        <mxCell id="_YNqAXAVylyeZjbfj3ao-16" value="" style="edgeStyle=orthogonalEdgeStyle;rounded=0;orthogonalLoop=1;jettySize=auto;html=1;" edge="1" parent="WIyWlLk6GJQsqaUBKTNV-1" source="_YNqAXAVylyeZjbfj3ao-13" target="_YNqAXAVylyeZjbfj3ao-15">
          <mxGeometry relative="1" as="geometry" />
        </mxCell>
        <mxCell id="_YNqAXAVylyeZjbfj3ao-13" value="&lt;span&gt;Build Tag 2 ECR Sandbox&lt;br&gt;&lt;/span&gt;V0.1.1_时间戳&lt;span&gt;&lt;br&gt;&lt;/span&gt;" style="whiteSpace=wrap;html=1;rounded=1;shadow=0;strokeWidth=1;glass=0;fillColor=#f8cecc;strokeColor=#b85450;" vertex="1" parent="WIyWlLk6GJQsqaUBKTNV-1">
          <mxGeometry x="1100" y="200" width="120" height="60" as="geometry" />
        </mxCell>
        <mxCell id="_YNqAXAVylyeZjbfj3ao-15" value="手工/CD?&lt;br&gt;发布到Sandbox" style="whiteSpace=wrap;html=1;rounded=1;shadow=0;strokeColor=#666666;strokeWidth=1;fillColor=#f5f5f5;glass=0;fontColor=#333333;dashed=1;" vertex="1" parent="WIyWlLk6GJQsqaUBKTNV-1">
          <mxGeometry x="1430" y="200" width="120" height="60" as="geometry" />
        </mxCell>
        <mxCell id="_YNqAXAVylyeZjbfj3ao-17" value="美餐CI/CD 流程建议" style="text;html=1;strokeColor=none;fillColor=none;align=center;verticalAlign=middle;whiteSpace=wrap;rounded=0;dashed=1;fontSize=30;" vertex="1" parent="WIyWlLk6GJQsqaUBKTNV-1">
          <mxGeometry x="200" y="70" width="320" height="120" as="geometry" />
        </mxCell>
        <mxCell id="_YNqAXAVylyeZjbfj3ao-22" value="" style="edgeStyle=orthogonalEdgeStyle;rounded=0;orthogonalLoop=1;jettySize=auto;html=1;fontSize=14;" edge="1" parent="WIyWlLk6GJQsqaUBKTNV-1" source="_YNqAXAVylyeZjbfj3ao-20" target="_YNqAXAVylyeZjbfj3ao-21">
          <mxGeometry relative="1" as="geometry" />
        </mxCell>
        <mxCell id="_YNqAXAVylyeZjbfj3ao-20" value="&lt;span&gt;CI Master阶段&lt;br&gt;&lt;/span&gt;V0.1.0&lt;span&gt;&lt;br&gt;&lt;/span&gt;" style="whiteSpace=wrap;html=1;rounded=1;shadow=0;strokeWidth=1;glass=0;fillColor=#dae8fc;strokeColor=#6c8ebf;" vertex="1" parent="WIyWlLk6GJQsqaUBKTNV-1">
          <mxGeometry x="320" y="360" width="120" height="60" as="geometry" />
        </mxCell>
        <mxCell id="_YNqAXAVylyeZjbfj3ao-24" value="" style="edgeStyle=orthogonalEdgeStyle;rounded=0;orthogonalLoop=1;jettySize=auto;html=1;fontSize=14;" edge="1" parent="WIyWlLk6GJQsqaUBKTNV-1" source="_YNqAXAVylyeZjbfj3ao-21" target="_YNqAXAVylyeZjbfj3ao-23">
          <mxGeometry relative="1" as="geometry" />
        </mxCell>
        <mxCell id="_YNqAXAVylyeZjbfj3ao-21" value="&lt;span&gt;Release生成&amp;nbsp;&lt;/span&gt;&lt;br&gt;&lt;span&gt;V0.1.1&lt;/span&gt;" style="whiteSpace=wrap;html=1;rounded=1;shadow=0;strokeColor=#82b366;strokeWidth=1;fillColor=#d5e8d4;glass=0;" vertex="1" parent="WIyWlLk6GJQsqaUBKTNV-1">
          <mxGeometry x="520" y="360" width="120" height="60" as="geometry" />
        </mxCell>
        <mxCell id="_YNqAXAVylyeZjbfj3ao-26" value="" style="edgeStyle=orthogonalEdgeStyle;rounded=0;orthogonalLoop=1;jettySize=auto;html=1;fontSize=14;" edge="1" parent="WIyWlLk6GJQsqaUBKTNV-1" source="_YNqAXAVylyeZjbfj3ao-23" target="_YNqAXAVylyeZjbfj3ao-25">
          <mxGeometry relative="1" as="geometry" />
        </mxCell>
        <mxCell id="_YNqAXAVylyeZjbfj3ao-23" value="生成CHANGELOG&lt;br&gt;提交代码/生成Tag" style="whiteSpace=wrap;html=1;rounded=1;shadow=0;strokeColor=#82b366;strokeWidth=1;fillColor=#d5e8d4;glass=0;" vertex="1" parent="WIyWlLk6GJQsqaUBKTNV-1">
          <mxGeometry x="690" y="360" width="120" height="60" as="geometry" />
        </mxCell>
        <mxCell id="_YNqAXAVylyeZjbfj3ao-28" value="" style="edgeStyle=orthogonalEdgeStyle;rounded=0;orthogonalLoop=1;jettySize=auto;html=1;fontSize=14;" edge="1" parent="WIyWlLk6GJQsqaUBKTNV-1" source="_YNqAXAVylyeZjbfj3ao-25" target="_YNqAXAVylyeZjbfj3ao-27">
          <mxGeometry relative="1" as="geometry" />
        </mxCell>
        <mxCell id="_YNqAXAVylyeZjbfj3ao-25" value="&lt;span&gt;测试 等/验证&lt;/span&gt;" style="whiteSpace=wrap;html=1;rounded=1;shadow=0;strokeColor=#d6b656;strokeWidth=1;fillColor=#fff2cc;glass=0;" vertex="1" parent="WIyWlLk6GJQsqaUBKTNV-1">
          <mxGeometry x="880" y="360" width="120" height="60" as="geometry" />
        </mxCell>
        <mxCell id="_YNqAXAVylyeZjbfj3ao-30" value="" style="edgeStyle=orthogonalEdgeStyle;rounded=0;orthogonalLoop=1;jettySize=auto;html=1;fontSize=14;" edge="1" parent="WIyWlLk6GJQsqaUBKTNV-1" source="_YNqAXAVylyeZjbfj3ao-27" target="_YNqAXAVylyeZjbfj3ao-29">
          <mxGeometry relative="1" as="geometry" />
        </mxCell>
        <mxCell id="_YNqAXAVylyeZjbfj3ao-32" style="edgeStyle=orthogonalEdgeStyle;rounded=0;orthogonalLoop=1;jettySize=auto;html=1;fontSize=14;" edge="1" parent="WIyWlLk6GJQsqaUBKTNV-1" source="_YNqAXAVylyeZjbfj3ao-27" target="_YNqAXAVylyeZjbfj3ao-31">
          <mxGeometry relative="1" as="geometry" />
        </mxCell>
        <mxCell id="_YNqAXAVylyeZjbfj3ao-27" value="&lt;span&gt;SonarQube&lt;/span&gt;&lt;br&gt;&lt;span&gt;代码质量/测试报告&lt;/span&gt;" style="whiteSpace=wrap;html=1;rounded=1;shadow=0;strokeColor=#d6b656;strokeWidth=1;fillColor=#fff2cc;glass=0;" vertex="1" parent="WIyWlLk6GJQsqaUBKTNV-1">
          <mxGeometry x="1050" y="360" width="120" height="60" as="geometry" />
        </mxCell>
        <mxCell id="_YNqAXAVylyeZjbfj3ao-34" value="" style="edgeStyle=orthogonalEdgeStyle;rounded=0;orthogonalLoop=1;jettySize=auto;html=1;fontSize=14;" edge="1" parent="WIyWlLk6GJQsqaUBKTNV-1" source="_YNqAXAVylyeZjbfj3ao-29" target="_YNqAXAVylyeZjbfj3ao-33">
          <mxGeometry relative="1" as="geometry" />
        </mxCell>
        <mxCell id="_YNqAXAVylyeZjbfj3ao-29" value="&lt;span&gt;Build Tag 2 ECR Sandbox&lt;br&gt;&lt;/span&gt;V0.1.1&lt;span&gt;&lt;br&gt;&lt;/span&gt;" style="whiteSpace=wrap;html=1;rounded=1;shadow=0;strokeColor=#b85450;strokeWidth=1;fillColor=#f8cecc;glass=0;" vertex="1" parent="WIyWlLk6GJQsqaUBKTNV-1">
          <mxGeometry x="1240.5" y="300" width="120" height="60" as="geometry" />
        </mxCell>
        <mxCell id="_YNqAXAVylyeZjbfj3ao-36" value="" style="edgeStyle=orthogonalEdgeStyle;rounded=0;orthogonalLoop=1;jettySize=auto;html=1;fontSize=14;" edge="1" parent="WIyWlLk6GJQsqaUBKTNV-1" source="_YNqAXAVylyeZjbfj3ao-31" target="_YNqAXAVylyeZjbfj3ao-35">
          <mxGeometry relative="1" as="geometry" />
        </mxCell>
        <mxCell id="_YNqAXAVylyeZjbfj3ao-31" value="Build Tag 2 ECR &lt;br&gt;Prod&lt;br&gt;V0.1.1" style="whiteSpace=wrap;html=1;rounded=1;shadow=0;strokeColor=#b85450;strokeWidth=1;fillColor=#f8cecc;glass=0;" vertex="1" parent="WIyWlLk6GJQsqaUBKTNV-1">
          <mxGeometry x="1241" y="410" width="120" height="60" as="geometry" />
        </mxCell>
        <mxCell id="_YNqAXAVylyeZjbfj3ao-33" value="&lt;span style=&quot;color: rgb(51 , 51 , 51)&quot;&gt;手工/CD?&lt;/span&gt;&lt;br style=&quot;color: rgb(51 , 51 , 51)&quot;&gt;&lt;span style=&quot;color: rgb(51 , 51 , 51)&quot;&gt;发布到Sandbox&lt;/span&gt;" style="whiteSpace=wrap;html=1;rounded=1;shadow=0;strokeWidth=1;glass=0;fillColor=#f5f5f5;strokeColor=#666666;fontColor=#333333;dashed=1;" vertex="1" parent="WIyWlLk6GJQsqaUBKTNV-1">
          <mxGeometry x="1430" y="300" width="120" height="60" as="geometry" />
        </mxCell>
        <mxCell id="_YNqAXAVylyeZjbfj3ao-35" value="&lt;span style=&quot;color: rgb(51 , 51 , 51)&quot;&gt;手工/CD?&lt;/span&gt;&lt;br style=&quot;color: rgb(51 , 51 , 51)&quot;&gt;&lt;span style=&quot;color: rgb(51 , 51 , 51)&quot;&gt;发布到QA/Prod&lt;/span&gt;" style="whiteSpace=wrap;html=1;rounded=1;shadow=0;strokeColor=#666666;strokeWidth=1;fillColor=#f5f5f5;glass=0;fontColor=#333333;dashed=1;" vertex="1" parent="WIyWlLk6GJQsqaUBKTNV-1">
          <mxGeometry x="1430" y="410" width="120" height="60" as="geometry" />
        </mxCell>
        <mxCell id="_YNqAXAVylyeZjbfj3ao-61" style="edgeStyle=orthogonalEdgeStyle;rounded=0;orthogonalLoop=1;jettySize=auto;html=1;entryX=0;entryY=0.5;entryDx=0;entryDy=0;fontSize=14;" edge="1" parent="WIyWlLk6GJQsqaUBKTNV-1" source="_YNqAXAVylyeZjbfj3ao-44" target="_YNqAXAVylyeZjbfj3ao-45">
          <mxGeometry relative="1" as="geometry" />
        </mxCell>
        <mxCell id="_YNqAXAVylyeZjbfj3ao-44" value="&amp;nbsp; &amp;nbsp; 基础镜像搭建" style="shape=step;perimeter=stepPerimeter;whiteSpace=wrap;html=1;fixedSize=1;fontSize=14;fillColor=#f5f5f5;strokeColor=#666666;fontColor=#333333;" vertex="1" parent="WIyWlLk6GJQsqaUBKTNV-1">
          <mxGeometry x="70" y="460" width="120" height="80" as="geometry" />
        </mxCell>
        <mxCell id="_YNqAXAVylyeZjbfj3ao-48" value="" style="edgeStyle=orthogonalEdgeStyle;rounded=0;orthogonalLoop=1;jettySize=auto;html=1;fontSize=14;" edge="1" parent="WIyWlLk6GJQsqaUBKTNV-1" source="_YNqAXAVylyeZjbfj3ao-45" target="_YNqAXAVylyeZjbfj3ao-47">
          <mxGeometry relative="1" as="geometry" />
        </mxCell>
        <mxCell id="_YNqAXAVylyeZjbfj3ao-45" value="&amp;nbsp; &amp;nbsp; Gitlab Group创建" style="shape=step;perimeter=stepPerimeter;whiteSpace=wrap;html=1;fixedSize=1;fontSize=14;fillColor=#d5e8d4;strokeColor=#82b366;" vertex="1" parent="WIyWlLk6GJQsqaUBKTNV-1">
          <mxGeometry x="320" y="520" width="120" height="80" as="geometry" />
        </mxCell>
        <mxCell id="_YNqAXAVylyeZjbfj3ao-50" value="" style="edgeStyle=orthogonalEdgeStyle;rounded=0;orthogonalLoop=1;jettySize=auto;html=1;fontSize=14;" edge="1" parent="WIyWlLk6GJQsqaUBKTNV-1" source="_YNqAXAVylyeZjbfj3ao-47" target="_YNqAXAVylyeZjbfj3ao-49">
          <mxGeometry relative="1" as="geometry" />
        </mxCell>
        <mxCell id="_YNqAXAVylyeZjbfj3ao-47" value="&amp;nbsp; &amp;nbsp; ECR文件夹目录创建" style="shape=step;perimeter=stepPerimeter;whiteSpace=wrap;html=1;fixedSize=1;fontSize=14;fillColor=#f8cecc;strokeColor=#b85450;" vertex="1" parent="WIyWlLk6GJQsqaUBKTNV-1">
          <mxGeometry x="520" y="520" width="120" height="80" as="geometry" />
        </mxCell>
        <mxCell id="_YNqAXAVylyeZjbfj3ao-52" value="" style="edgeStyle=orthogonalEdgeStyle;rounded=0;orthogonalLoop=1;jettySize=auto;html=1;fontSize=14;" edge="1" parent="WIyWlLk6GJQsqaUBKTNV-1" source="_YNqAXAVylyeZjbfj3ao-49" target="_YNqAXAVylyeZjbfj3ao-51">
          <mxGeometry relative="1" as="geometry" />
        </mxCell>
        <mxCell id="_YNqAXAVylyeZjbfj3ao-49" value="&amp;nbsp; &amp;nbsp; Argo 项目发布目录创建 - Gilab 发布repo需要" style="shape=step;perimeter=stepPerimeter;whiteSpace=wrap;html=1;fixedSize=1;fontSize=14;fillColor=#f5f5f5;strokeColor=#666666;fontColor=#333333;dashed=1;" vertex="1" parent="WIyWlLk6GJQsqaUBKTNV-1">
          <mxGeometry x="720" y="520" width="150" height="80" as="geometry" />
        </mxCell>
        <mxCell id="_YNqAXAVylyeZjbfj3ao-51" value="&amp;nbsp; &amp;nbsp; Argo 创建项目" style="shape=step;perimeter=stepPerimeter;whiteSpace=wrap;html=1;fixedSize=1;fontSize=14;fillColor=#f5f5f5;strokeColor=#666666;fontColor=#333333;dashed=1;" vertex="1" parent="WIyWlLk6GJQsqaUBKTNV-1">
          <mxGeometry x="920" y="520" width="120" height="80" as="geometry" />
        </mxCell>
        <mxCell id="_YNqAXAVylyeZjbfj3ao-53" value="&lt;h1&gt;操作&lt;/h1&gt;&lt;p&gt;Go_Release /&amp;nbsp;&lt;span&gt;Kaniko 上传到 各自的ECR中&lt;/span&gt;&lt;/p&gt;&lt;p&gt;EKS - 创建Gitlab Runner 调整资源&lt;/p&gt;" style="text;html=1;strokeColor=none;fillColor=none;spacing=5;spacingTop=-20;whiteSpace=wrap;overflow=hidden;rounded=0;dashed=1;fontSize=14;" vertex="1" parent="WIyWlLk6GJQsqaUBKTNV-1">
          <mxGeometry x="50" y="680" width="200" height="140" as="geometry" />
        </mxCell>
        <mxCell id="_YNqAXAVylyeZjbfj3ao-54" value="&lt;h1&gt;操作&lt;/h1&gt;&lt;p&gt;针对微服务创建对应的 Group和项目，方便 脚手架项目提交，Ops设置一些 变量给Release做操作&lt;/p&gt;&lt;p&gt;&lt;br&gt;&lt;/p&gt;" style="text;html=1;strokeColor=none;fillColor=none;spacing=5;spacingTop=-20;whiteSpace=wrap;overflow=hidden;rounded=0;dashed=1;fontSize=14;" vertex="1" parent="WIyWlLk6GJQsqaUBKTNV-1">
          <mxGeometry x="310" y="640" width="190" height="150" as="geometry" />
        </mxCell>
        <mxCell id="_YNqAXAVylyeZjbfj3ao-55" value="&lt;h1&gt;操作&lt;/h1&gt;&lt;p&gt;针对项目 创建 ECR目录 Sandbox/Prod都需要&lt;/p&gt;" style="text;html=1;strokeColor=none;fillColor=none;spacing=5;spacingTop=-20;whiteSpace=wrap;overflow=hidden;rounded=0;dashed=1;fontSize=14;" vertex="1" parent="WIyWlLk6GJQsqaUBKTNV-1">
          <mxGeometry x="540" y="640" width="190" height="150" as="geometry" />
        </mxCell>
        <mxCell id="_YNqAXAVylyeZjbfj3ao-56" value="&lt;h1&gt;操作&lt;/h1&gt;&lt;p&gt;注册Repo到 Argo Sandbox &amp;amp; Argo QA &amp;amp; Argo Prod&amp;nbsp;&lt;/p&gt;&lt;p&gt;创建 Application 针对同一个服务&lt;/p&gt;&lt;p&gt;&lt;br&gt;&lt;/p&gt;" style="text;html=1;strokeColor=none;fillColor=none;spacing=5;spacingTop=-20;whiteSpace=wrap;overflow=hidden;rounded=0;dashed=1;fontSize=14;" vertex="1" parent="WIyWlLk6GJQsqaUBKTNV-1">
          <mxGeometry x="780" y="640" width="190" height="150" as="geometry" />
        </mxCell>
        <mxCell id="_YNqAXAVylyeZjbfj3ao-57" value="&lt;h1&gt;Q&amp;amp;A&lt;/h1&gt;&lt;p&gt;1. Sonar需要 Sandbox &amp;amp; Prod两个环境嘛？&lt;/p&gt;&lt;p&gt;2. Argo的发布目录需要新建一个 Repo，设置权限方便让对应的人员来 Merge &amp;amp; Review 代码嘛？&lt;/p&gt;&lt;p&gt;&lt;br&gt;&lt;/p&gt;" style="text;html=1;strokeColor=none;fillColor=none;spacing=5;spacingTop=-20;whiteSpace=wrap;overflow=hidden;rounded=0;dashed=1;fontSize=14;" vertex="1" parent="WIyWlLk6GJQsqaUBKTNV-1">
          <mxGeometry x="330" y="850" width="745" height="130" as="geometry" />
        </mxCell>
        <mxCell id="_YNqAXAVylyeZjbfj3ao-62" style="edgeStyle=orthogonalEdgeStyle;rounded=0;orthogonalLoop=1;jettySize=auto;html=1;entryX=0;entryY=0.5;entryDx=0;entryDy=0;fontSize=14;" edge="1" parent="WIyWlLk6GJQsqaUBKTNV-1" source="_YNqAXAVylyeZjbfj3ao-59" target="_YNqAXAVylyeZjbfj3ao-45">
          <mxGeometry relative="1" as="geometry" />
        </mxCell>
        <mxCell id="_YNqAXAVylyeZjbfj3ao-59" value="&amp;nbsp; &amp;nbsp; Gitlab-Runner Prod" style="shape=step;perimeter=stepPerimeter;whiteSpace=wrap;html=1;fixedSize=1;fontSize=14;fillColor=#f5f5f5;strokeColor=#666666;fontColor=#333333;" vertex="1" parent="WIyWlLk6GJQsqaUBKTNV-1">
          <mxGeometry x="70" y="585" width="120" height="80" as="geometry" />
        </mxCell>
      </root>
    </mxGraphModel>
  </diagram>
</mxfile>
